<svg xmlns="http://www.w3.org/2000/svg" width="880" height="706" viewBox="0 0 880 706" font-family="-apple-system, 'Segoe UI', system-ui, sans-serif">
<rect width="880" height="706" fill="#0d1117"/>
<line x1="110" y1="108" x2="110" y2="654" stroke="#2c2c2a" stroke-width="1"/>
<text x="110" y="672" text-anchor="middle" font-size="12" fill="#898781">0%</text>
<line x1="216" y1="108" x2="216" y2="654" stroke="#2c2c2a" stroke-width="1"/>
<text x="216" y="672" text-anchor="middle" font-size="12" fill="#898781">10%</text>
<line x1="322" y1="108" x2="322" y2="654" stroke="#2c2c2a" stroke-width="1"/>
<text x="322" y="672" text-anchor="middle" font-size="12" fill="#898781">20%</text>
<line x1="428" y1="108" x2="428" y2="654" stroke="#2c2c2a" stroke-width="1"/>
<text x="428" y="672" text-anchor="middle" font-size="12" fill="#898781">30%</text>
<line x1="534" y1="108" x2="534" y2="654" stroke="#2c2c2a" stroke-width="1"/>
<text x="534" y="672" text-anchor="middle" font-size="12" fill="#898781">40%</text>
<line x1="640" y1="108" x2="640" y2="654" stroke="#2c2c2a" stroke-width="1"/>
<text x="640" y="672" text-anchor="middle" font-size="12" fill="#898781">50%</text>
<line x1="746" y1="108" x2="746" y2="654" stroke="#2c2c2a" stroke-width="1"/>
<text x="746" y="672" text-anchor="middle" font-size="12" fill="#898781">60%</text>
<line x1="852" y1="108" x2="852" y2="654" stroke="#2c2c2a" stroke-width="1"/>
<text x="852" y="672" text-anchor="middle" font-size="12" fill="#898781">70%</text>
<line x1="110" y1="121" x2="852" y2="121" stroke="#2c2c2a" stroke-width="1"/>
<text x="100" y="125" text-anchor="end" font-size="12.5" fill="#ffffff">jsp</text>
<circle cx="281.932" cy="121" r="5.5" fill="#199e70" stroke="#0d1117" stroke-width="2"/>
<path d="M363.446 115 L369.446 126 L357.446 126 Z" fill="#3987e5" stroke="#0d1117" stroke-width="2"/>
<rect x="509.1779999999999" y="116" width="10" height="10" rx="1.5" fill="#c98500" stroke="#0d1117" stroke-width="2"/>
<path d="M629.294 114.5 L635.794 121 L629.294 127.5 L622.794 121 Z" fill="#9085e9" stroke="#0d1117" stroke-width="2"/>
<line x1="110" y1="147" x2="852" y2="147" stroke="#2c2c2a" stroke-width="1"/>
<text x="100" y="151" text-anchor="end" font-size="12.5" fill="#ffffff">csharp</text>
<circle cx="292.85" cy="147" r="5.5" fill="#199e70" stroke="#0d1117" stroke-width="2"/>
<path d="M381.996 141 L387.996 152 L375.996 152 Z" fill="#3987e5" stroke="#0d1117" stroke-width="2"/>
<rect x="371.59" y="142" width="10" height="10" rx="1.5" fill="#c98500" stroke="#0d1117" stroke-width="2"/>
<path d="M420.05 140.5 L426.55 147 L420.05 153.5 L413.55 147 Z" fill="#9085e9" stroke="#0d1117" stroke-width="2"/>
<line x1="110" y1="173" x2="852" y2="173" stroke="#2c2c2a" stroke-width="1"/>
<text x="100" y="177" text-anchor="end" font-size="12.5" fill="#ffffff">java</text>
<circle cx="298.46799999999996" cy="173" r="5.5" fill="#199e70" stroke="#0d1117" stroke-width="2"/>
<path d="M392.914 167 L398.914 178 L386.914 178 Z" fill="#3987e5" stroke="#0d1117" stroke-width="2"/>
<rect x="447.38000000000005" y="168" width="10" height="10" rx="1.5" fill="#c98500" stroke="#0d1117" stroke-width="2"/>
<path d="M530.396 166.5 L536.896 173 L530.396 179.5 L523.896 173 Z" fill="#9085e9" stroke="#0d1117" stroke-width="2"/>
<line x1="110" y1="199" x2="852" y2="199" stroke="#2c2c2a" stroke-width="1"/>
<text x="100" y="203" text-anchor="end" font-size="12.5" fill="#ffffff">html</text>
<circle cx="307.054" cy="199" r="5.5" fill="#199e70" stroke="#0d1117" stroke-width="2"/>
<path d="M400.65200000000004 193 L406.65200000000004 204 L394.65200000000004 204 Z" fill="#3987e5" stroke="#0d1117" stroke-width="2"/>
<rect x="398.09000000000003" y="194" width="10" height="10" rx="1.5" fill="#c98500" stroke="#0d1117" stroke-width="2"/>
<path d="M479.94 192.5 L486.44 199 L479.94 205.5 L473.44 199 Z" fill="#9085e9" stroke="#0d1117" stroke-width="2"/>
<line x1="110" y1="225" x2="852" y2="225" stroke="#2c2c2a" stroke-width="1"/>
<text x="100" y="229" text-anchor="end" font-size="12.5" fill="#ffffff">cpp</text>
<circle cx="310.022" cy="225" r="5.5" fill="#199e70" stroke="#0d1117" stroke-width="2"/>
<path d="M405.528 219 L411.528 230 L399.528 230 Z" fill="#3987e5" stroke="#0d1117" stroke-width="2"/>
<rect x="405.61600000000004" y="220" width="10" height="10" rx="1.5" fill="#c98500" stroke="#0d1117" stroke-width="2"/>
<path d="M448.45799999999997 218.5 L454.95799999999997 225 L448.45799999999997 231.5 L441.95799999999997 225 Z" fill="#9085e9" stroke="#0d1117" stroke-width="2"/>
<line x1="110" y1="251" x2="852" y2="251" stroke="#2c2c2a" stroke-width="1"/>
<text x="100" y="255" text-anchor="end" font-size="12.5" fill="#ffffff">typescript</text>
<circle cx="310.658" cy="251" r="5.5" fill="#199e70" stroke="#0d1117" stroke-width="2"/>
<path d="M409.026 245 L415.026 256 L403.026 256 Z" fill="#3987e5" stroke="#0d1117" stroke-width="2"/>
<rect x="346.99800000000005" y="246" width="10" height="10" rx="1.5" fill="#c98500" stroke="#0d1117" stroke-width="2"/>
<path d="M380.936 244.5 L387.436 251 L380.936 257.5 L374.436 251 Z" fill="#9085e9" stroke="#0d1117" stroke-width="2"/>
<line x1="110" y1="277" x2="852" y2="277" stroke="#2c2c2a" stroke-width="1"/>
<text x="100" y="281" text-anchor="end" font-size="12.5" fill="#ffffff">css</text>
<circle cx="314.05" cy="277" r="5.5" fill="#199e70" stroke="#0d1117" stroke-width="2"/>
<path d="M421.21600000000007 271 L427.21600000000007 282 L415.21600000000007 282 Z" fill="#3987e5" stroke="#0d1117" stroke-width="2"/>
<rect x="393.74399999999997" y="272" width="10" height="10" rx="1.5" fill="#c98500" stroke="#0d1117" stroke-width="2"/>
<path d="M443.79400000000004 270.5 L450.29400000000004 277 L443.79400000000004 283.5 L437.29400000000004 277 Z" fill="#9085e9" stroke="#0d1117" stroke-width="2"/>
<line x1="110" y1="303" x2="852" y2="303" stroke="#2c2c2a" stroke-width="1"/>
<text x="100" y="307" text-anchor="end" font-size="12.5" fill="#ffffff">rust</text>
<circle cx="315.95799999999997" cy="303" r="5.5" fill="#199e70" stroke="#0d1117" stroke-width="2"/>
<path d="M412.948 297 L418.948 308 L406.948 308 Z" fill="#3987e5" stroke="#0d1117" stroke-width="2"/>
<rect x="388.868" y="298" width="10" height="10" rx="1.5" fill="#c98500" stroke="#0d1117" stroke-width="2"/>
<path d="M423.33599999999996 296.5 L429.83599999999996 303 L423.33599999999996 309.5 L416.83599999999996 303 Z" fill="#9085e9" stroke="#0d1117" stroke-width="2"/>
<line x1="110" y1="329" x2="852" y2="329" stroke="#2c2c2a" stroke-width="1"/>
<text x="100" y="333" text-anchor="end" font-size="12.5" fill="#ffffff">dart</text>
<circle cx="324.862" cy="329" r="5.5" fill="#199e70" stroke="#0d1117" stroke-width="2"/>
<path d="M435.102 323 L441.102 334 L429.102 334 Z" fill="#3987e5" stroke="#0d1117" stroke-width="2"/>
<rect x="430.52599999999995" y="324" width="10" height="10" rx="1.5" fill="#c98500" stroke="#0d1117" stroke-width="2"/>
<path d="M495.098 322.5 L501.598 329 L495.098 335.5 L488.598 329 Z" fill="#9085e9" stroke="#0d1117" stroke-width="2"/>
<line x1="110" y1="355" x2="852" y2="355" stroke="#2c2c2a" stroke-width="1"/>
<text x="100" y="359" text-anchor="end" font-size="12.5" fill="#ffffff">php</text>
<circle cx="327.93600000000004" cy="355" r="5.5" fill="#199e70" stroke="#0d1117" stroke-width="2"/>
<path d="M428.318 349 L434.318 360 L422.318 360 Z" fill="#3987e5" stroke="#0d1117" stroke-width="2"/>
<rect x="397.878" y="350" width="10" height="10" rx="1.5" fill="#c98500" stroke="#0d1117" stroke-width="2"/>
<path d="M444.96000000000004 348.5 L451.46000000000004 355 L444.96000000000004 361.5 L438.46000000000004 355 Z" fill="#9085e9" stroke="#0d1117" stroke-width="2"/>
<line x1="110" y1="381" x2="852" y2="381" stroke="#2c2c2a" stroke-width="1"/>
<text x="100" y="385" text-anchor="end" font-size="12.5" fill="#ffffff">ruby</text>
<circle cx="331.53999999999996" cy="381" r="5.5" fill="#199e70" stroke="#0d1117" stroke-width="2"/>
<path d="M437.01 375 L443.01 386 L431.01 386 Z" fill="#3987e5" stroke="#0d1117" stroke-width="2"/>
<rect x="373.816" y="376" width="10" height="10" rx="1.5" fill="#c98500" stroke="#0d1117" stroke-width="2"/>
<path d="M413.902 374.5 L420.402 381 L413.902 387.5 L407.402 381 Z" fill="#9085e9" stroke="#0d1117" stroke-width="2"/>
<line x1="110" y1="407" x2="852" y2="407" stroke="#2c2c2a" stroke-width="1"/>
<text x="100" y="411" text-anchor="end" font-size="12.5" fill="#ffffff">c</text>
<circle cx="353.69399999999996" cy="407" r="5.5" fill="#199e70" stroke="#0d1117" stroke-width="2"/>
<path d="M469.446 401 L475.446 412 L463.446 412 Z" fill="#3987e5" stroke="#0d1117" stroke-width="2"/>
<rect x="458.51" y="402" width="10" height="10" rx="1.5" fill="#c98500" stroke="#0d1117" stroke-width="2"/>
<path d="M518.7360000000001 400.5 L525.2360000000001 407 L518.7360000000001 413.5 L512.2360000000001 407 Z" fill="#9085e9" stroke="#0d1117" stroke-width="2"/>
<line x1="110" y1="433" x2="852" y2="433" stroke="#2c2c2a" stroke-width="1"/>
<text x="100" y="437" text-anchor="end" font-size="12.5" fill="#ffffff">python</text>
<circle cx="354.012" cy="433" r="5.5" fill="#199e70" stroke="#0d1117" stroke-width="2"/>
<path d="M469.022 427 L475.022 438 L463.022 438 Z" fill="#3987e5" stroke="#0d1117" stroke-width="2"/>
<rect x="401.27" y="428" width="10" height="10" rx="1.5" fill="#c98500" stroke="#0d1117" stroke-width="2"/>
<path d="M442.84 426.5 L449.34 433 L442.84 439.5 L436.34 433 Z" fill="#9085e9" stroke="#0d1117" stroke-width="2"/>
<line x1="110" y1="459" x2="852" y2="459" stroke="#2c2c2a" stroke-width="1"/>
<text x="100" y="463" text-anchor="end" font-size="12.5" fill="#ffffff">zig</text>
<circle cx="360.47800000000007" cy="459" r="5.5" fill="#199e70" stroke="#0d1117" stroke-width="2"/>
<path d="M478.668 453 L484.668 464 L472.668 464 Z" fill="#3987e5" stroke="#0d1117" stroke-width="2"/>
<rect x="407.524" y="454" width="10" height="10" rx="1.5" fill="#c98500" stroke="#0d1117" stroke-width="2"/>
<path d="M444.006 452.5 L450.506 459 L444.006 465.5 L437.506 459 Z" fill="#9085e9" stroke="#0d1117" stroke-width="2"/>
<line x1="110" y1="485" x2="852" y2="485" stroke="#2c2c2a" stroke-width="1"/>
<text x="100" y="489" text-anchor="end" font-size="12.5" fill="#ffffff">haskell</text>
<circle cx="393.656" cy="485" r="5.5" fill="#199e70" stroke="#0d1117" stroke-width="2"/>
<path d="M525.944 479 L531.944 490 L519.944 490 Z" fill="#3987e5" stroke="#0d1117" stroke-width="2"/>
<rect x="479.816" y="480" width="10" height="10" rx="1.5" fill="#c98500" stroke="#0d1117" stroke-width="2"/>
<path d="M529.654 478.5 L536.154 485 L529.654 491.5 L523.154 485 Z" fill="#9085e9" stroke="#0d1117" stroke-width="2"/>
<line x1="110" y1="511" x2="852" y2="511" stroke="#2c2c2a" stroke-width="1"/>
<text x="100" y="515" text-anchor="end" font-size="12.5" fill="#ffffff">javascript</text>
<circle cx="431.39200000000005" cy="511" r="5.5" fill="#199e70" stroke="#0d1117" stroke-width="2"/>
<path d="M575.976 505 L581.976 516 L569.976 516 Z" fill="#3987e5" stroke="#0d1117" stroke-width="2"/>
<rect x="511.722" y="506" width="10" height="10" rx="1.5" fill="#c98500" stroke="#0d1117" stroke-width="2"/>
<path d="M579.4739999999999 504.5 L585.9739999999999 511 L579.4739999999999 517.5 L572.9739999999999 511 Z" fill="#9085e9" stroke="#0d1117" stroke-width="2"/>
<line x1="110" y1="537" x2="852" y2="537" stroke="#2c2c2a" stroke-width="1"/>
<text x="100" y="541" text-anchor="end" font-size="12.5" fill="#ffffff">text</text>
<circle cx="447.398" cy="537" r="5.5" fill="#199e70" stroke="#0d1117" stroke-width="2"/>
<path d="M599.19 531 L605.19 542 L593.19 542 Z" fill="#3987e5" stroke="#0d1117" stroke-width="2"/>
<rect x="473.4560000000001" y="532" width="10" height="10" rx="1.5" fill="#c98500" stroke="#0d1117" stroke-width="2"/>
<path d="M550.748 530.5 L557.248 537 L550.748 543.5 L544.248 537 Z" fill="#9085e9" stroke="#0d1117" stroke-width="2"/>
<line x1="110" y1="563" x2="852" y2="563" stroke="#2c2c2a" stroke-width="1"/>
<text x="100" y="567" text-anchor="end" font-size="12.5" fill="#ffffff">ja-JP</text>
<circle cx="463.086" cy="563" r="5.5" fill="#199e70" stroke="#0d1117" stroke-width="2"/>
<path d="M644.77 557 L650.77 568 L638.77 568 Z" fill="#3987e5" stroke="#0d1117" stroke-width="2"/>
<rect x="599.702" y="558" width="10" height="10" rx="1.5" fill="#c98500" stroke="#0d1117" stroke-width="2"/>
<path d="M702.222 556.5 L708.722 563 L702.222 569.5 L695.722 563 Z" fill="#9085e9" stroke="#0d1117" stroke-width="2"/>
<line x1="110" y1="589" x2="852" y2="589" stroke="#2c2c2a" stroke-width="1"/>
<text x="100" y="593" text-anchor="end" font-size="12.5" fill="#ffffff">en-US</text>
<circle cx="493.71999999999997" cy="589" r="5.5" fill="#199e70" stroke="#0d1117" stroke-width="2"/>
<path d="M659.61 583 L665.61 594 L653.61 594 Z" fill="#3987e5" stroke="#0d1117" stroke-width="2"/>
<rect x="568.008" y="584" width="10" height="10" rx="1.5" fill="#c98500" stroke="#0d1117" stroke-width="2"/>
<path d="M683.778 582.5 L690.278 589 L683.778 595.5 L677.278 589 Z" fill="#9085e9" stroke="#0d1117" stroke-width="2"/>
<line x1="110" y1="615" x2="852" y2="615" stroke="#2c2c2a" stroke-width="1"/>
<text x="100" y="619" text-anchor="end" font-size="12.5" fill="#ffffff">zh-CN</text>
<circle cx="502.306" cy="615" r="5.5" fill="#199e70" stroke="#0d1117" stroke-width="2"/>
<path d="M731.902 609 L737.902 620 L725.902 620 Z" fill="#3987e5" stroke="#0d1117" stroke-width="2"/>
<rect x="641.36" y="610" width="10" height="10" rx="1.5" fill="#c98500" stroke="#0d1117" stroke-width="2"/>
<path d="M775.998 608.5 L782.498 615 L775.998 621.5 L769.498 615 Z" fill="#9085e9" stroke="#0d1117" stroke-width="2"/>
<line x1="110" y1="641" x2="852" y2="641" stroke="#2c2c2a" stroke-width="1"/>
<text x="100" y="645" text-anchor="end" font-size="12.5" fill="#ffffff">zh-TW</text>
<circle cx="559.652" cy="641" r="5.5" fill="#199e70" stroke="#0d1117" stroke-width="2"/>
<path d="M787.658 635 L793.658 646 L781.658 646 Z" fill="#3987e5" stroke="#0d1117" stroke-width="2"/>
<rect x="628.3220000000001" y="636" width="10" height="10" rx="1.5" fill="#c98500" stroke="#0d1117" stroke-width="2"/>
<path d="M732.3259999999999 634.5 L738.8259999999999 641 L732.3259999999999 647.5 L725.8259999999999 641 Z" fill="#9085e9" stroke="#0d1117" stroke-width="2"/>
<circle cx="116" cy="76" r="5.5" fill="#199e70" stroke="#0d1117" stroke-width="2"/>
<text x="127" y="80" font-size="12.5" fill="#c3c2b7">tokzip small</text>
<path d="M238.2 70 L244.2 81 L232.2 81 Z" fill="#3987e5" stroke="#0d1117" stroke-width="2"/>
<text x="249.2" y="80" font-size="12.5" fill="#c3c2b7">tokzip fast</text>
<rect x="348.79999999999995" y="71" width="10" height="10" rx="1.5" fill="#c98500" stroke="#0d1117" stroke-width="2"/>
<text x="364.79999999999995" y="80" font-size="12.5" fill="#c3c2b7">brotli q11</text>
<path d="M462.79999999999995 69.5 L469.29999999999995 76 L462.79999999999995 82.5 L456.29999999999995 76 Z" fill="#9085e9" stroke="#0d1117" stroke-width="2"/>
<text x="473.79999999999995" y="80" font-size="12.5" fill="#c3c2b7">zstd -19</text>
<text x="24" y="30" font-size="15" font-weight="600" fill="#ffffff">Compression ratio by language</text>
<text x="24" y="50" font-size="12" fill="#c3c2b7">output / input (%) on the bench-v2 split, text-channel output — lower is better</text>
<text x="481" y="694" text-anchor="middle" font-size="12" fill="#c3c2b7">output / input (%)</text>
</svg>
