<svg xmlns="http://www.w3.org/2000/svg" width="880" height="706" viewBox="0 0 880 706" font-family="-apple-system, 'Segoe UI', system-ui, sans-serif">
<rect width="880" height="706" fill="#0d1117"/>
<line x1="110" y1="108" x2="110" y2="654" stroke="#2c2c2a" stroke-width="1"/>
<text x="110" y="672" text-anchor="middle" font-size="12" fill="#898781">0%</text>
<line x1="202.75" y1="108" x2="202.75" y2="654" stroke="#2c2c2a" stroke-width="1"/>
<text x="202.75" y="672" text-anchor="middle" font-size="12" fill="#898781">10%</text>
<line x1="295.5" y1="108" x2="295.5" y2="654" stroke="#2c2c2a" stroke-width="1"/>
<text x="295.5" y="672" text-anchor="middle" font-size="12" fill="#898781">20%</text>
<line x1="388.25" y1="108" x2="388.25" y2="654" stroke="#2c2c2a" stroke-width="1"/>
<text x="388.25" y="672" text-anchor="middle" font-size="12" fill="#898781">30%</text>
<line x1="481" y1="108" x2="481" y2="654" stroke="#2c2c2a" stroke-width="1"/>
<text x="481" y="672" text-anchor="middle" font-size="12" fill="#898781">40%</text>
<line x1="573.75" y1="108" x2="573.75" y2="654" stroke="#2c2c2a" stroke-width="1"/>
<text x="573.75" y="672" text-anchor="middle" font-size="12" fill="#898781">50%</text>
<line x1="666.5" y1="108" x2="666.5" y2="654" stroke="#2c2c2a" stroke-width="1"/>
<text x="666.5" y="672" text-anchor="middle" font-size="12" fill="#898781">60%</text>
<line x1="759.25" y1="108" x2="759.25" y2="654" stroke="#2c2c2a" stroke-width="1"/>
<text x="759.25" y="672" text-anchor="middle" font-size="12" fill="#898781">70%</text>
<line x1="852" y1="108" x2="852" y2="654" stroke="#2c2c2a" stroke-width="1"/>
<text x="852" y="672" text-anchor="middle" font-size="12" fill="#898781">80%</text>
<line x1="110" y1="121" x2="852" y2="121" stroke="#2c2c2a" stroke-width="1"/>
<text x="100" y="125" text-anchor="end" font-size="12.5" fill="#ffffff">csharp</text>
<circle cx="290.95525" cy="121" r="5.5" fill="#199e70" stroke="#0d1117" stroke-width="2"/>
<path d="M370.6275 115 L376.6275 126 L364.6275 126 Z" fill="#3987e5" stroke="#0d1117" stroke-width="2"/>
<path d="M370.6275 114.5 L377.1275 121 L370.6275 127.5 L364.1275 121 Z" fill="#9085e9" stroke="#0d1117" stroke-width="2"/>
<rect x="326.76525000000004" y="116" width="10" height="10" rx="1.5" fill="#c98500" stroke="#0d1117" stroke-width="2"/>
<line x1="110" y1="147" x2="852" y2="147" stroke="#2c2c2a" stroke-width="1"/>
<text x="100" y="151" text-anchor="end" font-size="12.5" fill="#ffffff">typescript</text>
<circle cx="302.64175" cy="147" r="5.5" fill="#199e70" stroke="#0d1117" stroke-width="2"/>
<path d="M388.89925000000005 141 L394.89925000000005 152 L382.89925000000005 152 Z" fill="#3987e5" stroke="#0d1117" stroke-width="2"/>
<path d="M356.90049999999997 140.5 L363.40049999999997 147 L356.90049999999997 153.5 L350.40049999999997 147 Z" fill="#9085e9" stroke="#0d1117" stroke-width="2"/>
<rect x="316.65549999999996" y="142" width="10" height="10" rx="1.5" fill="#c98500" stroke="#0d1117" stroke-width="2"/>
<line x1="110" y1="173" x2="852" y2="173" stroke="#2c2c2a" stroke-width="1"/>
<text x="100" y="177" text-anchor="end" font-size="12.5" fill="#ffffff">cpp</text>
<circle cx="306.90825" cy="173" r="5.5" fill="#199e70" stroke="#0d1117" stroke-width="2"/>
<path d="M392.702 167 L398.702 178 L386.702 178 Z" fill="#3987e5" stroke="#0d1117" stroke-width="2"/>
<path d="M396.69025 166.5 L403.19025 173 L396.69025 179.5 L390.19025 173 Z" fill="#9085e9" stroke="#0d1117" stroke-width="2"/>
<rect x="350.7875" y="168" width="10" height="10" rx="1.5" fill="#c98500" stroke="#0d1117" stroke-width="2"/>
<line x1="110" y1="199" x2="852" y2="199" stroke="#2c2c2a" stroke-width="1"/>
<text x="100" y="203" text-anchor="end" font-size="12.5" fill="#ffffff">java</text>
<circle cx="315.905" cy="199" r="5.5" fill="#199e70" stroke="#0d1117" stroke-width="2"/>
<path d="M404.7595 193 L410.7595 204 L398.7595 204 Z" fill="#3987e5" stroke="#0d1117" stroke-width="2"/>
<path d="M463.28475000000003 192.5 L469.78475000000003 199 L463.28475000000003 205.5 L456.78475000000003 199 Z" fill="#9085e9" stroke="#0d1117" stroke-width="2"/>
<rect x="393.0815" y="194" width="10" height="10" rx="1.5" fill="#c98500" stroke="#0d1117" stroke-width="2"/>
<line x1="110" y1="225" x2="852" y2="225" stroke="#2c2c2a" stroke-width="1"/>
<text x="100" y="229" text-anchor="end" font-size="12.5" fill="#ffffff">rust</text>
<circle cx="329.35375" cy="225" r="5.5" fill="#199e70" stroke="#0d1117" stroke-width="2"/>
<path d="M424.88625 219 L430.88625 230 L418.88625 230 Z" fill="#3987e5" stroke="#0d1117" stroke-width="2"/>
<path d="M392.1455 218.5 L398.6455 225 L392.1455 231.5 L385.6455 225 Z" fill="#9085e9" stroke="#0d1117" stroke-width="2"/>
<rect x="353.29175" y="220" width="10" height="10" rx="1.5" fill="#c98500" stroke="#0d1117" stroke-width="2"/>
<line x1="110" y1="251" x2="852" y2="251" stroke="#2c2c2a" stroke-width="1"/>
<text x="100" y="255" text-anchor="end" font-size="12.5" fill="#ffffff">ruby</text>
<circle cx="330.5595" cy="251" r="5.5" fill="#199e70" stroke="#0d1117" stroke-width="2"/>
<path d="M428.22525 245 L434.22525 256 L422.22525 256 Z" fill="#3987e5" stroke="#0d1117" stroke-width="2"/>
<path d="M389.64124999999996 244.5 L396.14124999999996 251 L389.64124999999996 257.5 L383.14124999999996 251 Z" fill="#9085e9" stroke="#0d1117" stroke-width="2"/>
<rect x="344.66600000000005" y="246" width="10" height="10" rx="1.5" fill="#c98500" stroke="#0d1117" stroke-width="2"/>
<line x1="110" y1="277" x2="852" y2="277" stroke="#2c2c2a" stroke-width="1"/>
<text x="100" y="281" text-anchor="end" font-size="12.5" fill="#ffffff">php</text>
<circle cx="332.4145" cy="277" r="5.5" fill="#199e70" stroke="#0d1117" stroke-width="2"/>
<path d="M428.689 271 L434.689 282 L422.689 282 Z" fill="#3987e5" stroke="#0d1117" stroke-width="2"/>
<path d="M424.05150000000003 270.5 L430.55150000000003 277 L424.05150000000003 283.5 L417.55150000000003 277 Z" fill="#9085e9" stroke="#0d1117" stroke-width="2"/>
<rect x="373.604" y="272" width="10" height="10" rx="1.5" fill="#c98500" stroke="#0d1117" stroke-width="2"/>
<line x1="110" y1="303" x2="852" y2="303" stroke="#2c2c2a" stroke-width="1"/>
<text x="100" y="307" text-anchor="end" font-size="12.5" fill="#ffffff">python</text>
<circle cx="341.41125" cy="303" r="5.5" fill="#199e70" stroke="#0d1117" stroke-width="2"/>
<path d="M439.91175 297 L445.91175 308 L433.91175 308 Z" fill="#3987e5" stroke="#0d1117" stroke-width="2"/>
<path d="M403.92475 296.5 L410.42475 303 L403.92475 309.5 L397.42475 303 Z" fill="#9085e9" stroke="#0d1117" stroke-width="2"/>
<rect x="361.63925" y="298" width="10" height="10" rx="1.5" fill="#c98500" stroke="#0d1117" stroke-width="2"/>
<line x1="110" y1="329" x2="852" y2="329" stroke="#2c2c2a" stroke-width="1"/>
<text x="100" y="333" text-anchor="end" font-size="12.5" fill="#ffffff">css</text>
<circle cx="344.472" cy="329" r="5.5" fill="#199e70" stroke="#0d1117" stroke-width="2"/>
<path d="M445.755 323 L451.755 334 L439.755 334 Z" fill="#3987e5" stroke="#0d1117" stroke-width="2"/>
<path d="M431.657 322.5 L438.157 329 L431.657 335.5 L425.157 329 Z" fill="#9085e9" stroke="#0d1117" stroke-width="2"/>
<rect x="371.5635" y="324" width="10" height="10" rx="1.5" fill="#c98500" stroke="#0d1117" stroke-width="2"/>
<line x1="110" y1="355" x2="852" y2="355" stroke="#2c2c2a" stroke-width="1"/>
<text x="100" y="359" text-anchor="end" font-size="12.5" fill="#ffffff">dart</text>
<circle cx="347.53274999999996" cy="355" r="5.5" fill="#199e70" stroke="#0d1117" stroke-width="2"/>
<path d="M447.05350000000004 349 L453.05350000000004 360 L441.05350000000004 360 Z" fill="#3987e5" stroke="#0d1117" stroke-width="2"/>
<path d="M445.29125 348.5 L451.79125 355 L445.29125 361.5 L438.79125 355 Z" fill="#9085e9" stroke="#0d1117" stroke-width="2"/>
<rect x="386.31075000000004" y="350" width="10" height="10" rx="1.5" fill="#c98500" stroke="#0d1117" stroke-width="2"/>
<line x1="110" y1="381" x2="852" y2="381" stroke="#2c2c2a" stroke-width="1"/>
<text x="100" y="385" text-anchor="end" font-size="12.5" fill="#ffffff">html</text>
<circle cx="353.1905" cy="381" r="5.5" fill="#199e70" stroke="#0d1117" stroke-width="2"/>
<path d="M460.13124999999997 375 L466.13124999999997 386 L454.13124999999997 386 Z" fill="#3987e5" stroke="#0d1117" stroke-width="2"/>
<path d="M451.8765 374.5 L458.3765 381 L451.8765 387.5 L445.3765 381 Z" fill="#9085e9" stroke="#0d1117" stroke-width="2"/>
<rect x="371.37800000000004" y="376" width="10" height="10" rx="1.5" fill="#c98500" stroke="#0d1117" stroke-width="2"/>
<line x1="110" y1="407" x2="852" y2="407" stroke="#2c2c2a" stroke-width="1"/>
<text x="100" y="411" text-anchor="end" font-size="12.5" fill="#ffffff">zig</text>
<circle cx="357.086" cy="407" r="5.5" fill="#199e70" stroke="#0d1117" stroke-width="2"/>
<path d="M466.80925 401 L472.80925 412 L460.80925 412 Z" fill="#3987e5" stroke="#0d1117" stroke-width="2"/>
<path d="M414.68375000000003 400.5 L421.18375000000003 407 L414.68375000000003 413.5 L408.18375000000003 407 Z" fill="#9085e9" stroke="#0d1117" stroke-width="2"/>
<rect x="371.749" y="402" width="10" height="10" rx="1.5" fill="#c98500" stroke="#0d1117" stroke-width="2"/>
<line x1="110" y1="433" x2="852" y2="433" stroke="#2c2c2a" stroke-width="1"/>
<text x="100" y="437" text-anchor="end" font-size="12.5" fill="#ffffff">c</text>
<circle cx="364.41324999999995" cy="433" r="5.5" fill="#199e70" stroke="#0d1117" stroke-width="2"/>
<path d="M478.58849999999995 427 L484.58849999999995 438 L472.58849999999995 438 Z" fill="#3987e5" stroke="#0d1117" stroke-width="2"/>
<path d="M478.58849999999995 426.5 L485.08849999999995 433 L478.58849999999995 439.5 L472.08849999999995 433 Z" fill="#9085e9" stroke="#0d1117" stroke-width="2"/>
<rect x="414.32125" y="428" width="10" height="10" rx="1.5" fill="#c98500" stroke="#0d1117" stroke-width="2"/>
<line x1="110" y1="459" x2="852" y2="459" stroke="#2c2c2a" stroke-width="1"/>
<text x="100" y="463" text-anchor="end" font-size="12.5" fill="#ffffff">jsp</text>
<circle cx="368.12325" cy="459" r="5.5" fill="#199e70" stroke="#0d1117" stroke-width="2"/>
<path d="M478.403 453 L484.403 464 L472.403 464 Z" fill="#3987e5" stroke="#0d1117" stroke-width="2"/>
<path d="M568.0922499999999 452.5 L574.5922499999999 459 L568.0922499999999 465.5 L561.5922499999999 459 Z" fill="#9085e9" stroke="#0d1117" stroke-width="2"/>
<rect x="458.65574999999995" y="454" width="10" height="10" rx="1.5" fill="#c98500" stroke="#0d1117" stroke-width="2"/>
<line x1="110" y1="485" x2="852" y2="485" stroke="#2c2c2a" stroke-width="1"/>
<text x="100" y="489" text-anchor="end" font-size="12.5" fill="#ffffff">haskell</text>
<circle cx="392.23825" cy="485" r="5.5" fill="#199e70" stroke="#0d1117" stroke-width="2"/>
<path d="M509.47425000000004 479 L515.47425 490 L503.47425000000004 490 Z" fill="#3987e5" stroke="#0d1117" stroke-width="2"/>
<path d="M474.50750000000005 478.5 L481.00750000000005 485 L474.50750000000005 491.5 L468.00750000000005 485 Z" fill="#9085e9" stroke="#0d1117" stroke-width="2"/>
<rect x="421.46299999999997" y="480" width="10" height="10" rx="1.5" fill="#c98500" stroke="#0d1117" stroke-width="2"/>
<line x1="110" y1="511" x2="852" y2="511" stroke="#2c2c2a" stroke-width="1"/>
<text x="100" y="515" text-anchor="end" font-size="12.5" fill="#ffffff">javascript</text>
<circle cx="427.29775" cy="511" r="5.5" fill="#199e70" stroke="#0d1117" stroke-width="2"/>
<path d="M561.8779999999999 505 L567.8779999999999 516 L555.8779999999999 516 Z" fill="#3987e5" stroke="#0d1117" stroke-width="2"/>
<path d="M523.4795 504.5 L529.9795 511 L523.4795 517.5 L516.9795 511 Z" fill="#9085e9" stroke="#0d1117" stroke-width="2"/>
<rect x="452.8125" y="506" width="10" height="10" rx="1.5" fill="#c98500" stroke="#0d1117" stroke-width="2"/>
<line x1="110" y1="537" x2="852" y2="537" stroke="#2c2c2a" stroke-width="1"/>
<text x="100" y="541" text-anchor="end" font-size="12.5" fill="#ffffff">text</text>
<circle cx="463.84125" cy="537" r="5.5" fill="#199e70" stroke="#0d1117" stroke-width="2"/>
<path d="M618.54825 531 L624.54825 542 L612.54825 542 Z" fill="#3987e5" stroke="#0d1117" stroke-width="2"/>
<path d="M547.9655 530.5 L554.4655 537 L547.9655 543.5 L541.4655 537 Z" fill="#9085e9" stroke="#0d1117" stroke-width="2"/>
<rect x="461.06725" y="532" width="10" height="10" rx="1.5" fill="#c98500" stroke="#0d1117" stroke-width="2"/>
<line x1="110" y1="563" x2="852" y2="563" stroke="#2c2c2a" stroke-width="1"/>
<text x="100" y="567" text-anchor="end" font-size="12.5" fill="#ffffff">ja-JP</text>
<circle cx="488.2345" cy="563" r="5.5" fill="#199e70" stroke="#0d1117" stroke-width="2"/>
<path d="M695.2525 557 L701.2525 568 L689.2525 568 Z" fill="#3987e5" stroke="#0d1117" stroke-width="2"/>
<path d="M651.4744999999999 556.5 L657.9744999999999 563 L651.4744999999999 569.5 L644.9744999999999 563 Z" fill="#9085e9" stroke="#0d1117" stroke-width="2"/>
<rect x="545.8407500000001" y="558" width="10" height="10" rx="1.5" fill="#c98500" stroke="#0d1117" stroke-width="2"/>
<line x1="110" y1="589" x2="852" y2="589" stroke="#2c2c2a" stroke-width="1"/>
<text x="100" y="593" text-anchor="end" font-size="12.5" fill="#ffffff">en-US</text>
<circle cx="495.46900000000005" cy="589" r="5.5" fill="#199e70" stroke="#0d1117" stroke-width="2"/>
<path d="M651.38175 583 L657.38175 594 L645.38175 594 Z" fill="#3987e5" stroke="#0d1117" stroke-width="2"/>
<path d="M607.0472500000001 582.5 L613.5472500000001 589 L607.0472500000001 595.5 L600.5472500000001 589 Z" fill="#9085e9" stroke="#0d1117" stroke-width="2"/>
<rect x="501.32075000000003" y="584" width="10" height="10" rx="1.5" fill="#c98500" stroke="#0d1117" stroke-width="2"/>
<line x1="110" y1="615" x2="852" y2="615" stroke="#2c2c2a" stroke-width="1"/>
<text x="100" y="619" text-anchor="end" font-size="12.5" fill="#ffffff">zh-CN</text>
<circle cx="512.3495" cy="615" r="5.5" fill="#199e70" stroke="#0d1117" stroke-width="2"/>
<path d="M739.7725 609 L745.7725 620 L733.7725 620 Z" fill="#3987e5" stroke="#0d1117" stroke-width="2"/>
<path d="M696.08725 608.5 L702.58725 615 L696.08725 621.5 L689.58725 615 Z" fill="#9085e9" stroke="#0d1117" stroke-width="2"/>
<rect x="560.4025" y="610" width="10" height="10" rx="1.5" fill="#c98500" stroke="#0d1117" stroke-width="2"/>
<line x1="110" y1="641" x2="852" y2="641" stroke="#2c2c2a" stroke-width="1"/>
<text x="100" y="645" text-anchor="end" font-size="12.5" fill="#ffffff">zh-TW</text>
<circle cx="543.1424999999999" cy="641" r="5.5" fill="#199e70" stroke="#0d1117" stroke-width="2"/>
<path d="M763.60925 635 L769.60925 646 L757.60925 646 Z" fill="#3987e5" stroke="#0d1117" stroke-width="2"/>
<path d="M685.9775 634.5 L692.4775 641 L685.9775 647.5 L679.4775 641 Z" fill="#9085e9" stroke="#0d1117" stroke-width="2"/>
<rect x="565.4110000000001" y="636" width="10" height="10" rx="1.5" fill="#c98500" stroke="#0d1117" stroke-width="2"/>
<circle cx="116" cy="76" r="5.5" fill="#199e70" stroke="#0d1117" stroke-width="2"/>
<text x="127" y="80" font-size="12.5" fill="#c3c2b7">tokzip small</text>
<path d="M238.2 70 L244.2 81 L232.2 81 Z" fill="#3987e5" stroke="#0d1117" stroke-width="2"/>
<text x="249.2" y="80" font-size="12.5" fill="#c3c2b7">tokzip fast</text>
<path d="M353.79999999999995 69.5 L360.29999999999995 76 L353.79999999999995 82.5 L347.29999999999995 76 Z" fill="#9085e9" stroke="#0d1117" stroke-width="2"/>
<text x="364.79999999999995" y="80" font-size="12.5" fill="#c3c2b7">cs gzip</text>
<rect x="437.99999999999994" y="71" width="10" height="10" rx="1.5" fill="#c98500" stroke="#0d1117" stroke-width="2"/>
<text x="453.99999999999994" y="80" font-size="12.5" fill="#c3c2b7">brotli q11</text>
<text x="24" y="30" font-size="15" font-weight="600" fill="#ffffff">Compression ratio by language</text>
<text x="24" y="50" font-size="12" fill="#c3c2b7">output / input (%), text channel, dictionary-free secondary metric — lower is better</text>
<text x="481" y="694" text-anchor="middle" font-size="12" fill="#c3c2b7">output / input (%)</text>
</svg>
