<svg xmlns="http://www.w3.org/2000/svg" width="880" height="460" viewBox="0 0 880 460" font-family="-apple-system, 'Segoe UI', system-ui, sans-serif">
<rect width="880" height="460" fill="#ffffff"/>
<line x1="64" y1="404" x2="852" y2="404" stroke="#e1e0d9" stroke-width="1"/>
<text x="56" y="408" text-anchor="end" font-size="12" fill="#898781">20%</text>
<line x1="64" y1="338.4" x2="852" y2="338.4" stroke="#e1e0d9" stroke-width="1"/>
<text x="56" y="342.4" text-anchor="end" font-size="12" fill="#898781">30%</text>
<line x1="64" y1="272.79999999999995" x2="852" y2="272.79999999999995" stroke="#e1e0d9" stroke-width="1"/>
<text x="56" y="276.79999999999995" text-anchor="end" font-size="12" fill="#898781">40%</text>
<line x1="64" y1="207.20000000000002" x2="852" y2="207.20000000000002" stroke="#e1e0d9" stroke-width="1"/>
<text x="56" y="211.20000000000002" text-anchor="end" font-size="12" fill="#898781">50%</text>
<line x1="64" y1="141.59999999999997" x2="852" y2="141.59999999999997" stroke="#e1e0d9" stroke-width="1"/>
<text x="56" y="145.59999999999997" text-anchor="end" font-size="12" fill="#898781">60%</text>
<line x1="64" y1="76" x2="852" y2="76" stroke="#e1e0d9" stroke-width="1"/>
<text x="56" y="80" text-anchor="end" font-size="12" fill="#898781">70%</text>
<line x1="64" y1="76" x2="64" y2="404" stroke="#e1e0d9" stroke-width="1"/>
<text x="64" y="422" text-anchor="middle" font-size="12" fill="#898781">0.2</text>
<line x1="156.28436229988526" y1="76" x2="156.28436229988526" y2="404" stroke="#e1e0d9" stroke-width="1"/>
<text x="156.28436229988526" y="422" text-anchor="middle" font-size="12" fill="#898781">0.5</text>
<line x1="226.09478743329507" y1="76" x2="226.09478743329507" y2="404" stroke="#e1e0d9" stroke-width="1"/>
<text x="226.09478743329507" y="422" text-anchor="middle" font-size="12" fill="#898781">1</text>
<line x1="295.9052125667049" y1="76" x2="295.9052125667049" y2="404" stroke="#e1e0d9" stroke-width="1"/>
<text x="295.9052125667049" y="422" text-anchor="middle" font-size="12" fill="#898781">2</text>
<line x1="388.18957486659014" y1="76" x2="388.18957486659014" y2="404" stroke="#e1e0d9" stroke-width="1"/>
<text x="388.18957486659014" y="422" text-anchor="middle" font-size="12" fill="#898781">5</text>
<line x1="458" y1="76" x2="458" y2="404" stroke="#e1e0d9" stroke-width="1"/>
<text x="458" y="422" text-anchor="middle" font-size="12" fill="#898781">10</text>
<line x1="527.8104251334098" y1="76" x2="527.8104251334098" y2="404" stroke="#e1e0d9" stroke-width="1"/>
<text x="527.8104251334098" y="422" text-anchor="middle" font-size="12" fill="#898781">20</text>
<line x1="620.0947874332951" y1="76" x2="620.0947874332951" y2="404" stroke="#e1e0d9" stroke-width="1"/>
<text x="620.0947874332951" y="422" text-anchor="middle" font-size="12" fill="#898781">50</text>
<line x1="689.9052125667049" y1="76" x2="689.9052125667049" y2="404" stroke="#e1e0d9" stroke-width="1"/>
<text x="689.9052125667049" y="422" text-anchor="middle" font-size="12" fill="#898781">100</text>
<line x1="759.7156377001148" y1="76" x2="759.7156377001148" y2="404" stroke="#e1e0d9" stroke-width="1"/>
<text x="759.7156377001148" y="422" text-anchor="middle" font-size="12" fill="#898781">200</text>
<line x1="852" y1="76" x2="852" y2="404" stroke="#e1e0d9" stroke-width="1"/>
<text x="852" y="422" text-anchor="middle" font-size="12" fill="#898781">500</text>
<line x1="64" y1="404" x2="852" y2="404" stroke="#c3c2b7" stroke-width="1"/>
<circle cx="190.1722154758021" cy="309.208" r="6" fill="#898781" stroke="#ffffff" stroke-width="2"/>
<text x="200.1722154758021" y="313.208" font-size="12.5" font-weight="400" fill="#52514e">brotli q11</text>
<circle cx="235.69396688361996" cy="357.6864" r="6" fill="#1baf7a" stroke="#ffffff" stroke-width="2"/>
<text x="245.69396688361996" y="361.6864" font-size="12.5" font-weight="600" fill="#52514e">tokzip small</text>
<circle cx="360.54962564940513" cy="131.43199999999996" r="6" fill="#898781" stroke="#ffffff" stroke-width="2"/>
<text x="370.54962564940513" y="135.43199999999996" font-size="12.5" font-weight="400" fill="#52514e">lz-string</text>
<circle cx="360.54962564940513" cy="268.2736" r="6" fill="#898781" stroke="#ffffff" stroke-width="2"/>
<text x="370.54962564940513" y="272.2736" font-size="12.5" font-weight="400" fill="#52514e">zstd -19</text>
<circle cx="502.7866010332509" cy="272.472" r="6" fill="#2a78d6" stroke="#ffffff" stroke-width="2"/>
<text x="466.4866010332509" y="260.472" font-size="12.5" font-weight="600" fill="#52514e">tokzip fast</text>
<circle cx="574.5154680592673" cy="281.59040000000005" r="6" fill="#898781" stroke="#ffffff" stroke-width="2"/>
<text x="584.5154680592673" y="285.59040000000005" font-size="12.5" font-weight="400" fill="#52514e">brotli q5</text>
<circle cx="637.7836486566024" cy="260.2048" r="6" fill="#898781" stroke="#ffffff" stroke-width="2"/>
<text x="647.7836486566024" y="264.2048" font-size="12.5" font-weight="400" fill="#52514e">gzip -6</text>
<circle cx="709.6845422410852" cy="245.904" r="6" fill="#898781" stroke="#ffffff" stroke-width="2"/>
<text x="719.6845422410852" y="249.904" font-size="12.5" font-weight="400" fill="#52514e">zstd -3</text>
<text x="24" y="30" font-size="15" font-weight="600" fill="#0b0b0b">Compression ratio vs speed</text>
<text x="24" y="50" font-size="12" fill="#52514e">bench-v2 corpus (2493 docs, 11.1 MB), text-channel output, GitHub Actions runner — closer to the bottom-right is better</text>
<text x="458" y="444" text-anchor="middle" font-size="12" fill="#52514e">compression speed (MB/s, log scale) →</text>
<text transform="translate(18 240) rotate(-90)" text-anchor="middle" font-size="12" fill="#52514e">← output / input (%)</text>
</svg>
