<svg xmlns="http://www.w3.org/2000/svg" width="880" height="460" viewBox="0 0 880 460" font-family="-apple-system, 'Segoe UI', system-ui, sans-serif">
<rect width="880" height="460" fill="#0d1117"/>
<line x1="64" y1="404" x2="852" y2="404" stroke="#2c2c2a" stroke-width="1"/>
<text x="56" y="408" text-anchor="end" font-size="12" fill="#898781">20%</text>
<line x1="64" y1="338.4" x2="852" y2="338.4" stroke="#2c2c2a" stroke-width="1"/>
<text x="56" y="342.4" text-anchor="end" font-size="12" fill="#898781">30%</text>
<line x1="64" y1="272.79999999999995" x2="852" y2="272.79999999999995" stroke="#2c2c2a" stroke-width="1"/>
<text x="56" y="276.79999999999995" text-anchor="end" font-size="12" fill="#898781">40%</text>
<line x1="64" y1="207.20000000000002" x2="852" y2="207.20000000000002" stroke="#2c2c2a" stroke-width="1"/>
<text x="56" y="211.20000000000002" text-anchor="end" font-size="12" fill="#898781">50%</text>
<line x1="64" y1="141.59999999999997" x2="852" y2="141.59999999999997" stroke="#2c2c2a" stroke-width="1"/>
<text x="56" y="145.59999999999997" text-anchor="end" font-size="12" fill="#898781">60%</text>
<line x1="64" y1="76" x2="852" y2="76" stroke="#2c2c2a" stroke-width="1"/>
<text x="56" y="80" text-anchor="end" font-size="12" fill="#898781">70%</text>
<line x1="64" y1="76" x2="64" y2="404" stroke="#2c2c2a" stroke-width="1"/>
<text x="64" y="422" text-anchor="middle" font-size="12" fill="#898781">0.2</text>
<line x1="156.28436229988526" y1="76" x2="156.28436229988526" y2="404" stroke="#2c2c2a" stroke-width="1"/>
<text x="156.28436229988526" y="422" text-anchor="middle" font-size="12" fill="#898781">0.5</text>
<line x1="226.09478743329507" y1="76" x2="226.09478743329507" y2="404" stroke="#2c2c2a" stroke-width="1"/>
<text x="226.09478743329507" y="422" text-anchor="middle" font-size="12" fill="#898781">1</text>
<line x1="295.9052125667049" y1="76" x2="295.9052125667049" y2="404" stroke="#2c2c2a" stroke-width="1"/>
<text x="295.9052125667049" y="422" text-anchor="middle" font-size="12" fill="#898781">2</text>
<line x1="388.18957486659014" y1="76" x2="388.18957486659014" y2="404" stroke="#2c2c2a" stroke-width="1"/>
<text x="388.18957486659014" y="422" text-anchor="middle" font-size="12" fill="#898781">5</text>
<line x1="458" y1="76" x2="458" y2="404" stroke="#2c2c2a" stroke-width="1"/>
<text x="458" y="422" text-anchor="middle" font-size="12" fill="#898781">10</text>
<line x1="527.8104251334098" y1="76" x2="527.8104251334098" y2="404" stroke="#2c2c2a" stroke-width="1"/>
<text x="527.8104251334098" y="422" text-anchor="middle" font-size="12" fill="#898781">20</text>
<line x1="620.0947874332951" y1="76" x2="620.0947874332951" y2="404" stroke="#2c2c2a" stroke-width="1"/>
<text x="620.0947874332951" y="422" text-anchor="middle" font-size="12" fill="#898781">50</text>
<line x1="689.9052125667049" y1="76" x2="689.9052125667049" y2="404" stroke="#2c2c2a" stroke-width="1"/>
<text x="689.9052125667049" y="422" text-anchor="middle" font-size="12" fill="#898781">100</text>
<line x1="759.7156377001148" y1="76" x2="759.7156377001148" y2="404" stroke="#2c2c2a" stroke-width="1"/>
<text x="759.7156377001148" y="422" text-anchor="middle" font-size="12" fill="#898781">200</text>
<line x1="852" y1="76" x2="852" y2="404" stroke="#2c2c2a" stroke-width="1"/>
<text x="852" y="422" text-anchor="middle" font-size="12" fill="#898781">500</text>
<line x1="64" y1="404" x2="852" y2="404" stroke="#383835" stroke-width="1"/>
<circle cx="190.1722154758021" cy="297.7936" r="6" fill="#898781" stroke="#0d1117" stroke-width="2"/>
<text x="200.1722154758021" y="301.7936" font-size="12.5" font-weight="400" fill="#c3c2b7">brotli q11</text>
<circle cx="305.5043920170298" cy="318.1296" r="6" fill="#199e70" stroke="#0d1117" stroke-width="2"/>
<text x="315.5043920170298" y="322.1296" font-size="12.5" font-weight="600" fill="#c3c2b7">tokzip small</text>
<circle cx="360.54962564940513" cy="122.44479999999999" r="6" fill="#898781" stroke="#0d1117" stroke-width="2"/>
<text x="370.54962564940513" y="126.44479999999999" font-size="12.5" font-weight="400" fill="#c3c2b7">lz-string</text>
<circle cx="363.1657507664313" cy="253.776" r="6" fill="#898781" stroke="#0d1117" stroke-width="2"/>
<text x="373.1657507664313" y="257.776" font-size="12.5" font-weight="400" fill="#c3c2b7">zstd -19</text>
<circle cx="471.1965316452615" cy="219.86079999999998" r="6" fill="#3987e5" stroke="#0d1117" stroke-width="2"/>
<text x="481.1965316452615" y="223.86079999999998" font-size="12.5" font-weight="600" fill="#c3c2b7">tokzip fast</text>
<circle cx="537.4096045837347" cy="245.1824" r="6" fill="#898781" stroke="#0d1117" stroke-width="2"/>
<text x="547.4096045837347" y="249.1824" font-size="12.5" font-weight="400" fill="#c3c2b7">cs gzip</text>
<circle cx="539.2243411428511" cy="248.9216" r="6" fill="#898781" stroke="#0d1117" stroke-width="2"/>
<text x="436.82434114285115" y="252.9216" font-size="12.5" font-weight="400" fill="#c3c2b7">cs deflate-raw</text>
<circle cx="571.2974577596515" cy="268.0768" r="6" fill="#898781" stroke="#0d1117" stroke-width="2"/>
<text x="581.2974577596515" y="272.0768" font-size="12.5" font-weight="400" fill="#c3c2b7">brotli q5</text>
<circle cx="698.3070326892318" cy="230.8816" r="6" fill="#898781" stroke="#0d1117" stroke-width="2"/>
<text x="708.3070326892318" y="234.8816" font-size="12.5" font-weight="400" fill="#c3c2b7">zstd -3</text>
<text x="24" y="30" font-size="15" font-weight="600" fill="#ffffff">Compression ratio vs speed</text>
<text x="24" y="50" font-size="12" fill="#c3c2b7">bench-v2 (3288 docs, 13.2 MB), text channel, dictionary-free secondary metric — bottom-right is better</text>
<text x="458" y="444" text-anchor="middle" font-size="12" fill="#c3c2b7">compression speed (MB/s, log scale) →</text>
<text transform="translate(18 240) rotate(-90)" text-anchor="middle" font-size="12" fill="#c3c2b7">← output / input (%)</text>
</svg>
